HIERARCHY
ROOT mixamorig:Hips
{
	OFFSET 0.00 0.00 0.00
	CHANNELS 6 Xposition Yposition Zposition Zrotation Yrotation Xrotation
	JOINT mixamorig:Spine
	{
		OFFSET	0.0000	9.9235	-1.2273
		CHANNELS 3 Zrotation Yrotation Xrotation
		JOINT mixamorig:Spine1
		{
			OFFSET	-0.0001	11.6454	-1.4223
			CHANNELS 3 Zrotation Yrotation Xrotation
			JOINT mixamorig:Spine2
			{
				OFFSET	0.0001	13.3602	-1.6265
				CHANNELS 3 Zrotation Yrotation Xrotation
				JOINT mixamorig:Neck
				{
					OFFSET	0.0000	15.0325	0.7929
					CHANNELS 3 Zrotation Yrotation Xrotation
					JOINT mixamorig:Head
					{
						OFFSET	0.0000	10.3218	3.1424
						CHANNELS 3 Zrotation Yrotation Xrotation
						JOINT mixamorig:HeadTop_End
						{
							OFFSET	0.0002	18.4747	6.6364
							CHANNELS 3 Zrotation Yrotation Xrotation
							End Site
							{
								OFFSET 0.0000 0.0000 0.0000
							}
						}
						JOINT mixamorig:LeftEye
						{
							OFFSET	2.9479	7.6817	9.1207
							CHANNELS 3 Zrotation Yrotation Xrotation
							End Site
							{
								OFFSET 0.0000 0.0000 0.0000
							}
						}
						JOINT mixamorig:RightEye
						{
							OFFSET	-2.9445	7.6817	9.1205
							CHANNELS 3 Zrotation Yrotation Xrotation
							End Site
							{
								OFFSET 0.0000 0.0000 0.0000
							}
						}
					}
				}
				JOINT mixamorig:LeftShoulder
				{
					OFFSET	6.1058	9.1104	0.7056
					CHANNELS 3 Zrotation Yrotation Xrotation
					JOINT mixamorig:LeftArm
					{
						OFFSET	12.6532	-0.3431	-2.6009
						CHANNELS 3 Zrotation Yrotation Xrotation
						JOINT mixamorig:LeftForeArm
						{
							OFFSET	27.3517	-0.9645	-1.4034
							CHANNELS 3 Zrotation Yrotation Xrotation
							JOINT mixamorig:LeftHand
							{
								OFFSET	27.5619	-0.7072	1.5501
								CHANNELS 3 Zrotation Yrotation Xrotation
								JOINT mixamorig:LeftHandMiddle1
								{
									OFFSET	12.6631	-1.3962	0.9548
									CHANNELS 3 Zrotation Yrotation Xrotation
									JOINT mixamorig:LeftHandMiddle2
									{
										OFFSET	3.6093	-0.1669	0.0778
										CHANNELS 3 Zrotation Yrotation Xrotation
										JOINT mixamorig:LeftHandMiddle3
										{
											OFFSET	3.4005	-0.6274	0.1147
											CHANNELS 3 Zrotation Yrotation Xrotation
											End Site
											{
												OFFSET 3.6205 -0.6493 0.1199
											}
										}
									}
								}
								JOINT mixamorig:LeftHandThumb1
								{
									OFFSET	3.3268	-2.0475	3.5790
									CHANNELS 3 Zrotation Yrotation Xrotation
									JOINT mixamorig:LeftHandThumb2
									{
										OFFSET	3.4890	-1.4806	2.8548
										CHANNELS 3 Zrotation Yrotation Xrotation
										JOINT mixamorig:LeftHandThumb3
										{
											OFFSET	3.4086	-1.7658	2.1133
											CHANNELS 3 Zrotation Yrotation Xrotation
											End Site
											{
												OFFSET 2.7231 -1.1597 1.7902
											}
										}
									}
								}
								JOINT mixamorig:LeftHandIndex1
								{
									OFFSET	11.9722	-1.1061	3.7324
									CHANNELS 3 Zrotation Yrotation Xrotation
									JOINT mixamorig:LeftHandIndex2
									{
										OFFSET	3.8388	-0.6406	-0.0310
										CHANNELS 3 Zrotation Yrotation Xrotation
										JOINT mixamorig:LeftHandIndex3
										{
											OFFSET	3.3346	-0.7374	-0.0133
											CHANNELS 3 Zrotation Yrotation Xrotation
											End Site
											{
												OFFSET 2.9714 -0.8030 0.0009
											}
										}
									}
								}
								JOINT mixamorig:LeftHandRing1
								{
									OFFSET	12.1659	-1.6805	-1.2769
									CHANNELS 3 Zrotation Yrotation Xrotation
									JOINT mixamorig:LeftHandRing2
									{
										OFFSET	3.5926	-0.2366	-0.0771
										CHANNELS 3 Zrotation Yrotation Xrotation
										JOINT mixamorig:LeftHandRing3
										{
											OFFSET	3.2906	-0.3266	-0.0615
											CHANNELS 3 Zrotation Yrotation Xrotation
											End Site
											{
												OFFSET 3.5423 -0.9211 -0.0200
											}
										}
									}
								}
								JOINT mixamorig:LeftHandPinky1
								{
									OFFSET	11.0508	-2.1872	-3.8040
									CHANNELS 3 Zrotation Yrotation Xrotation
									JOINT mixamorig:LeftHandPinky2
									{
										OFFSET	4.1236	-0.3047	0.1212
										CHANNELS 3 Zrotation Yrotation Xrotation
										JOINT mixamorig:LeftHandPinky3
										{
											OFFSET	2.5805	-0.2597	0.0823
											CHANNELS 3 Zrotation Yrotation Xrotation
											End Site
											{
												OFFSET 2.9027 -0.3379 0.0963
											}
										}
									}
								}
							}
						}
					}
				}
				JOINT mixamorig:RightShoulder
				{
					OFFSET	-6.1057	9.1105	0.7056
					CHANNELS 3 Zrotation Yrotation Xrotation
					JOINT mixamorig:RightArm
					{
						OFFSET	-12.6532	-0.3429	-2.6009
						CHANNELS 3 Zrotation Yrotation Xrotation
						JOINT mixamorig:RightForeArm
						{
							OFFSET	-27.3517	-0.9641	-1.4034
							CHANNELS 3 Zrotation Yrotation Xrotation
							JOINT mixamorig:RightHand
							{
								OFFSET	-27.5619	-0.7068	1.5501
								CHANNELS 3 Zrotation Yrotation Xrotation
								JOINT mixamorig:RightHandMiddle1
								{
									OFFSET	-12.6631	-1.3960	0.9549
									CHANNELS 3 Zrotation Yrotation Xrotation
									JOINT mixamorig:RightHandMiddle2
									{
										OFFSET	-3.6093	-0.1669	0.0778
										CHANNELS 3 Zrotation Yrotation Xrotation
										JOINT mixamorig:RightHandMiddle3
										{
											OFFSET	-3.4005	-0.6273	0.1148
											CHANNELS 3 Zrotation Yrotation Xrotation
											End Site
											{
												OFFSET -3.6205 -0.6492 0.1199
											}
										}
									}
								}
								JOINT mixamorig:RightHandThumb1
								{
									OFFSET	-3.3269	-2.0474	3.5791
									CHANNELS 3 Zrotation Yrotation Xrotation
									JOINT mixamorig:RightHandThumb2
									{
										OFFSET	-3.4890	-1.4805	2.8548
										CHANNELS 3 Zrotation Yrotation Xrotation
										JOINT mixamorig:RightHandThumb3
										{
											OFFSET	-3.4086	-1.7658	2.1133
											CHANNELS 3 Zrotation Yrotation Xrotation
											End Site
											{
												OFFSET -2.7231 -1.1596 1.7902
											}
										}
									}
								}
								JOINT mixamorig:RightHandIndex1
								{
									OFFSET	-11.9722	-1.1059	3.7325
									CHANNELS 3 Zrotation Yrotation Xrotation
									JOINT mixamorig:RightHandIndex2
									{
										OFFSET	-3.8388	-0.6406	-0.0310
										CHANNELS 3 Zrotation Yrotation Xrotation
										JOINT mixamorig:RightHandIndex3
										{
											OFFSET	-3.3346	-0.7373	-0.0133
											CHANNELS 3 Zrotation Yrotation Xrotation
											End Site
											{
												OFFSET -2.9714 -0.8029 0.0009
											}
										}
									}
								}
								JOINT mixamorig:RightHandRing1
								{
									OFFSET	-12.1659	-1.6803	-1.2769
									CHANNELS 3 Zrotation Yrotation Xrotation
									JOINT mixamorig:RightHandRing2
									{
										OFFSET	-3.5926	-0.2366	-0.0771
										CHANNELS 3 Zrotation Yrotation Xrotation
										JOINT mixamorig:RightHandRing3
										{
											OFFSET	-3.2906	-0.3265	-0.0615
											CHANNELS 3 Zrotation Yrotation Xrotation
											End Site
											{
												OFFSET -3.5423 -0.9210 -0.0200
											}
										}
									}
								}
								JOINT mixamorig:RightHandPinky1
								{
									OFFSET	-11.0508	-2.1870	-3.8040
									CHANNELS 3 Zrotation Yrotation Xrotation
									JOINT mixamorig:RightHandPinky2
									{
										OFFSET	-4.1236	-0.3046	0.1212
										CHANNELS 3 Zrotation Yrotation Xrotation
										JOINT mixamorig:RightHandPinky3
										{
											OFFSET	-2.5805	-0.2597	0.0823
											CHANNELS 3 Zrotation Yrotation Xrotation
											End Site
											{
												OFFSET -2.9027 -0.3379 0.0963
											}
										}
									}
								}
							}
						}
					}
				}
			}
		}
	}
	JOINT mixamorig:RightUpLeg
	{
		OFFSET	-9.1245	-6.6564	-0.0554
		CHANNELS 3 Zrotation Yrotation Xrotation
		JOINT mixamorig:RightLeg
		{
			OFFSET	-0.0000	-40.5610	-1.7663
			CHANNELS 3 Zrotation Yrotation Xrotation
			JOINT mixamorig:RightFoot
			{
				OFFSET	0.4978	-41.9625	-3.3512
				CHANNELS 3 Zrotation Yrotation Xrotation
				JOINT mixamorig:RightToeBase
				{
					OFFSET	-0.3734	-10.4922	12.6407
					CHANNELS 3 Zrotation Yrotation Xrotation
					End Site
					{
						OFFSET 0.0000 -0.0000 9.9925
					}
				}
			}
		}
	}
	JOINT mixamorig:LeftUpLeg
	{
		OFFSET	9.1245	-6.6564	-0.0554
		CHANNELS 3 Zrotation Yrotation Xrotation
		JOINT mixamorig:LeftLeg
		{
			OFFSET	0.0000	-40.5610	-1.7663
			CHANNELS 3 Zrotation Yrotation Xrotation
			JOINT mixamorig:LeftFoot
			{
				OFFSET	-0.4978	-41.9625	-3.3512
				CHANNELS 3 Zrotation Yrotation Xrotation
				JOINT mixamorig:LeftToeBase
				{
					OFFSET	0.3734	-10.4922	12.6407
					CHANNELS 3 Zrotation Yrotation Xrotation
					End Site
					{
						OFFSET -0.0000 -0.0000 9.9925
					}
				}
			}
		}
	}
}
MOTION
Frames: 8
Frame Time: 0.0333333
25.5643 92.5111 340.8546 5.5733 -62.4837 -7.6248 15.7789 16.8270 12.8311 1.8566 4.6282 0.5736 1.8441 4.5859 0.6776 0.9031 0.6989 -4.4556 -9.6825 16.8549 -36.0734 0.0000 -0.0000 0.0000 0.0000 -0.0000 0.0000 0.0000 -0.0000 0.0000 -5.3663 -6.2524 1.2765 -77.3958 11.1812 -5.3152 0.2652 -28.7623 6.3387 -45.3314 41.1439 -7.2599 -43.1421 -2.7894 1.9293 -49.1897 -1.9759 1.9838 -59.2929 -2.3710 3.0787 2.5052 7.2406 19.8714 -0.6242 -12.4218 28.2994 18.2549 -3.1491 3.8667 -31.9030 -4.5101 0.8747 -34.3395 -1.7478 -0.0122 -34.6825 -1.7380 0.0459 -43.0315 -4.7151 1.8343 -58.9119 -3.3259 0.2941 -53.8927 -2.8749 0.2236 -25.4994 1.4253 1.2714 -42.9675 -1.8641 1.8875 -43.5971 -1.9037 1.9598 8.8923 5.9829 5.5176 31.6395 11.1514 30.1942 -9.1371 29.2433 -8.0656 55.9842 -15.3976 1.4804 49.7801 3.8729 2.7547 46.4845 2.9389 2.1749 56.6069 3.3521 2.9651 1.4063 -11.7225 13.0624 -7.2537 7.8270 24.8378 0.0177 -12.7401 -9.4886 35.8239 5.4984 1.2905 38.9463 2.8304 0.1941 39.2888 2.8226 0.2195 48.6100 5.7694 2.5018 65.1537 4.7909 1.1382 60.1167 4.4579 0.8818 29.0241 -0.6758 1.3426 47.1430 2.8984 2.4489 47.7740 2.9376 2.5107 -16.3624 -1.5548 -13.5688 -14.6241 -7.3250 45.6741 6.9452 0.4579 -15.0998 10.8936 -2.5404 -9.7021 -5.4245 -15.9701 -29.6790 10.5656 -2.3330 59.4358 6.8284 -0.0784 -5.3450 -18.2713 3.3751 -25.2023 
26.5017 92.6218 341.3521 4.9013 -58.6682 -5.8832 13.6937 16.2889 15.1581 1.3371 4.6217 1.2965 1.2880 4.5967 1.3896 0.2553 0.5507 -3.8311 -10.8285 13.5533 -40.6637 0.0000 -0.0000 0.0000 0.0000 -0.0000 0.0000 0.0000 -0.0000 0.0000 -7.9883 -7.1330 1.6375 -73.5311 14.4387 4.3874 -0.4372 -41.5617 -5.7172 -31.0555 45.3583 -3.2094 -52.4719 -2.6734 2.5862 -59.7522 -2.1761 2.6056 -69.8598 -2.4240 3.7499 2.8747 7.1477 18.6770 0.2425 -11.4616 27.0732 18.4758 -3.0714 3.8015 -36.4796 -4.3656 1.1975 -45.6460 -2.3105 0.2154 -45.9894 -2.2924 0.2895 -53.7536 -5.2676 2.4430 -75.4347 -4.0542 0.9644 -70.4075 -3.6459 0.8355 -39.3496 1.0725 2.0257 -56.6813 -2.1226 2.7238 -57.3113 -2.1439 2.8079 7.5130 5.7617 5.3341 36.4482 -1.7329 19.7648 -11.2897 41.2993 -16.9331 53.7168 -17.6422 0.7564 59.1218 3.8038 3.5450 57.0520 3.3119 2.9529 67.1822 3.5730 3.8035 1.1233 -11.5455 11.8648 -8.0444 6.7263 23.7824 -0.1800 -12.7956 -9.5763 40.4086 5.4105 1.6556 50.2525 3.5651 0.6018 50.5952 3.5537 0.6334 59.3483 6.4024 3.3430 81.7073 5.5603 2.2077 76.6590 5.3143 1.8807 42.8671 -0.1242 2.2745 60.8663 3.2793 3.5197 61.4982 3.3027 3.5891 -16.3126 -2.5994 -19.7128 -17.0610 -11.5216 55.5759 2.5210 0.0063 -9.0247 23.8754 -3.9707 -11.0067 -6.1372 -14.7947 -28.2057 9.6594 -3.4309 55.5739 7.2133 0.3151 -11.9799 -15.3510 2.2141 -15.6902 
27.2742 92.6736 341.4400 6.3276 -55.5667 -6.1451 10.8351 15.3077 17.8612 0.9270 4.4396 2.0738 0.8387 4.4193 2.1533 -0.3564 0.4596 -2.6844 -11.1581 11.0718 -40.9263 0.0000 -0.0000 0.0000 0.0000 -0.0000 0.0000 0.0000 -0.0000 0.0000 -8.9619 -7.7756 1.8333 -69.4876 17.7937 12.8162 0.2892 -56.5405 -5.7453 -22.1172 49.9597 -0.3890 -61.0179 -2.5750 3.1803 -66.1688 -2.2406 2.9975 -76.2776 -2.3960 4.1588 2.4492 8.2794 21.6421 3.3755 -7.0140 22.0922 16.5344 -3.7446 4.3843 -41.5801 -4.3308 1.5358 -57.7436 -2.8504 0.5758 -58.0877 -2.8199 0.6648 -64.1264 -5.0907 3.1268 -80.6806 -4.2416 1.2178 -75.6507 -3.8501 1.0732 -50.6996 2.1234 2.7852 -67.2420 -2.1818 3.3959 -67.8721 -2.1875 3.4859 4.2101 4.3740 4.9365 46.6949 -9.4284 9.1859 -13.6215 55.0548 -21.1935 48.4391 -20.6625 0.2728 67.6781 3.7261 4.2791 63.4740 3.4663 3.4543 73.6073 3.6307 4.3276 1.3652 -12.8900 14.7680 -10.8784 1.7227 19.5218 1.5560 -12.3187 -8.8011 45.5169 5.4346 2.0578 62.3580 4.2460 1.1887 62.7010 4.2294 1.2261 69.7418 6.2639 4.1973 86.9650 5.7366 2.5887 81.9136 5.5221 2.2448 54.2339 -1.0511 3.1240 71.4376 3.3929 4.3885 72.0698 3.4031 4.4610 -15.6218 -6.5196 -26.5365 -11.1263 -9.9510 63.5535 -0.6868 0.0298 -6.2667 20.7621 -5.7642 -8.4507 -6.9875 -12.9021 -26.2547 7.0090 -4.7184 50.7018 6.8853 0.6221 -17.3378 -7.9573 3.2067 -8.0749 
27.8088 92.7977 341.6589 7.8251 -52.9047 -5.9287 8.3168 13.8495 18.4095 0.8213 4.0055 2.3436 0.7249 3.9820 2.4062 -0.7089 0.3606 -0.1008 -10.9433 9.5281 -31.4433 0.0000 -0.0000 0.0000 0.0000 -0.0000 0.0000 0.0000 -0.0000 0.0000 -6.9234 -7.0199 1.5206 -66.7806 19.8279 22.9012 4.0599 -69.6907 2.0584 -26.6909 56.9758 -3.5982 -63.2834 -2.6374 3.3061 -68.6308 -2.2537 3.1494 -78.7398 -2.3733 4.3154 3.0572 11.7856 22.4923 4.8509 -3.9572 19.1330 16.1621 -3.8712 4.4985 -44.3811 -4.4537 1.6895 -59.3156 -2.9145 0.6308 -59.6598 -2.8822 0.7215 -65.5491 -5.1492 3.2098 -80.8651 -4.2477 1.2270 -75.8351 -3.8569 1.0819 -48.9527 3.8648 2.7810 -66.1554 -2.1815 3.3264 -66.7856 -2.1887 3.4159 0.9705 3.0136 4.6229 57.4752 -14.6452 -3.6596 -11.7970 72.1849 -22.9992 42.3088 -26.0384 -0.4877 69.9459 3.7932 4.4558 65.9384 3.5105 3.6508 76.0726 3.6372 4.5299 0.8365 -16.4603 15.3455 -12.1887 -1.6566 17.0040 1.8885 -12.2301 -8.6513 48.3210 5.5892 2.2608 63.9316 4.3249 1.2752 64.2747 4.3075 1.3131 71.1674 6.3255 4.3143 87.1500 5.7422 2.6024 82.0985 5.5288 2.2579 52.5195 -2.8122 2.9635 70.3499 3.3886 4.2983 70.9821 3.4003 4.3706 -12.5398 -12.0595 -33.6724 -4.7296 -8.1314 69.7881 -0.6881 -0.0091 -10.8116 4.2101 -5.0287 -1.8736 -8.1311 -10.6614 -25.5877 4.6838 -6.7095 46.8700 7.2770 0.8037 -19.6389 -2.7672 2.8566 -4.0778 
28.2134 93.4091 342.3363 8.9251 -50.5758 -6.5614 7.5920 12.4552 18.2082 0.9971 3.6092 2.5000 0.9028 3.5867 2.5527 -1.1834 0.2501 3.5776 -11.3261 8.8915 -17.9259 0.0000 -0.0000 0.0000 0.0000 -0.0000 0.0000 0.0000 -0.0000 0.0000 -4.5185 -6.3383 1.2136 -62.3029 21.1601 30.7332 19.2791 -82.6634 -4.6008 -32.1544 63.9173 -8.2030 -64.5460 -2.7590 3.3427 -62.7156 -2.2113 2.7857 -72.8238 -2.4175 3.9432 2.1560 12.6729 25.0372 5.9888 -0.4339 16.0150 12.3849 -5.1062 5.6975 -49.2702 -4.8537 1.9088 -51.2346 -2.5694 0.3677 -51.5784 -2.5459 0.4490 -63.8607 -5.0732 3.1121 -75.6614 -4.0628 0.9750 -70.6341 -3.6552 0.8454 -44.6886 8.1972 2.7747 -54.9638 -2.1013 2.6160 -55.5938 -2.1250 2.6989 -0.7568 2.3909 4.4809 65.9506 -19.7319 -14.3157 -125.3886 87.6019 -141.7445 30.0510 -31.4992 0.7901 71.2097 3.9203 4.5325 60.0177 3.3902 3.1823 70.1495 3.6070 4.0447 1.5673 -17.5079 17.8636 -13.1648 -5.5177 14.3524 5.2530 -11.3837 -7.1128 53.2147 6.0431 2.5872 55.8438 3.8951 0.8550 56.1866 3.8814 0.8894 69.4755 6.2457 4.1755 81.9344 5.5687 2.2238 76.8860 5.3240 1.8960 48.3605 -7.1957 2.5667 59.1473 3.2458 3.3810 59.7791 3.2712 3.4496 -9.6457 -15.3402 -36.4099 -1.6864 -8.5720 68.1751 -0.0887 0.0094 -10.4792 -0.4090 0.0436 -1.9623 -9.5135 -8.3955 -26.7951 3.0091 -7.3772 47.1794 7.4935 0.4741 -14.4050 -3.9643 -0.7699 -9.1604 
28.4207 94.5466 343.2458 9.5395 -48.5476 -9.2692 8.1613 12.2829 19.5842 1.2777 3.6087 2.9655 1.1709 3.5887 3.0171 -1.3288 0.0121 6.4539 -10.9253 7.8052 -9.6650 0.0000 -0.0000 0.0000 0.0000 -0.0000 0.0000 0.0000 -0.0000 0.0000 -3.0625 -6.8182 1.1390 -53.3773 24.4077 32.1975 165.3448 -78.9172 -154.5680 -0.6617 66.6319 10.8147 -61.0834 -0.5107 3.8235 -49.5202 -1.9838 2.0026 -59.6235 -2.3760 3.1075 -1.4641 5.2590 24.7063 6.6887 5.1427 11.4354 0.8725 -8.2927 9.7595 -53.9983 -4.9178 2.1963 -45.5365 -2.3053 0.2126 -45.8799 -2.2872 0.2866 -62.3773 -0.3263 3.5989 -49.0949 -2.8124 0.0044 -44.0797 -2.3444 -0.0265 -46.5698 15.6532 3.3464 -39.2395 -1.7600 1.6729 -39.8689 -1.8040 1.7413 0.2658 2.3664 4.5963 71.1271 -23.0253 -20.4760 -170.9967 68.5658 -179.7279 4.9514 -32.3449 6.6489 67.7574 1.5971 4.6546 46.8152 2.9527 2.1981 56.9378 3.3613 2.9906 4.9206 -10.0152 18.0926 -13.6415 -11.5963 10.4324 15.4035 -9.3985 -2.2628 57.9513 6.1478 2.9580 50.1430 3.5584 0.5972 50.4857 3.5470 0.6288 68.0109 1.4601 4.1097 55.3254 4.1995 0.6230 50.2953 3.8255 0.4194 50.4729 -14.6410 2.5766 43.4135 2.7516 2.1763 44.0443 2.7947 2.2354 -8.2331 -16.2377 -31.6572 -3.5207 -9.4949 58.7714 -1.9412 0.0831 -4.2501 -0.6458 3.3622 -12.2365 -9.0588 -5.2425 -29.8076 -0.3571 -5.1923 50.6387 1.0007 -0.1309 6.4313 2.0776 -6.1233 -28.4485 
28.0844 95.0471 344.3735 9.0884 -46.4817 -11.2916 8.4323 13.2422 20.1832 1.4779 3.8839 3.3313 1.3596 3.8573 3.3900 -0.6997 -0.3819 7.6841 -8.7444 5.5851 -6.9517 0.0000 -0.0000 0.0000 0.0000 -0.0000 0.0000 0.0000 -0.0000 0.0000 0.1594 -5.8963 0.7729 -45.3125 30.6848 33.7238 173.0152 -61.7122 -162.7596 42.8606 47.7208 27.0241 -55.7932 7.0368 5.8638 -32.5229 -1.4389 1.1061 -42.6151 -2.0438 2.0829 1.0775 12.0242 13.7665 1.8748 -9.3778 24.6156 9.7201 -5.9227 6.5861 -56.5108 -1.6689 3.1154 -42.9687 -2.1815 0.1515 -43.3120 -2.1656 0.2220 -51.2880 11.6429 4.3708 -28.2804 -1.6042 -0.2989 -23.2700 -1.1237 -0.2400 -52.8392 13.9155 3.6492 -25.0912 -1.2440 0.9315 -25.7198 -1.3024 0.9825 4.0517 3.1386 4.9774 71.9586 -23.5385 -22.8048 -177.4830 53.0696 -160.9404 -28.2589 -29.5783 13.8333 62.6095 -6.2045 5.6060 29.8213 2.0798 1.1227 39.9268 2.7030 1.7640 3.4779 -15.9645 6.4646 -9.5266 4.3655 21.6755 7.6168 -10.8443 -6.0091 60.4952 2.8665 3.6553 47.5746 3.3987 0.4922 47.9173 3.3882 0.5225 57.2114 -10.6453 3.3307 34.5076 2.7072 -0.0947 29.4893 2.2792 -0.1686 56.6569 -12.8420 3.1237 29.2652 2.0420 1.2431 29.8948 2.0982 1.2898 -6.6080 -16.5318 -24.6883 -6.8127 -8.4591 51.3840 -2.9719 -0.0536 -8.6633 3.8866 -0.0961 -17.1328 -7.7677 -0.4329 -34.2788 -0.2555 -2.3601 56.0147 -10.9817 3.5416 29.5388 19.7339 -5.3504 -38.7523 
27.6100 94.9776 345.7570 8.3677 -43.6676 -12.4924 8.4908 14.0914 19.8725 1.5478 4.0779 3.3150 1.4272 4.0307 3.3926 -0.0245 -0.6945 7.4269 -7.0178 3.3828 -6.6504 0.0000 -0.0000 0.0000 0.0000 -0.0000 0.0000 0.0000 -0.0000 0.0000 2.0448 -3.1018 0.1409 -39.6473 32.6381 36.1070 172.9090 -52.7154 -149.9895 66.6541 28.0465 22.1069 -64.7566 9.9415 7.4039 -22.4725 -1.0004 0.6648 -32.5573 -1.7101 1.5391 0.1237 17.8897 9.4495 -4.2568 -14.1653 40.3230 27.6450 0.3956 1.3486 -60.3603 -1.7193 3.3525 -41.1195 -2.0907 0.1110 -41.4627 -2.0763 0.1789 -57.6133 6.4616 4.1314 -19.7349 -1.0901 -0.2935 -14.7249 -0.6141 -0.1975 -80.8209 12.1527 5.3561 -15.0592 -0.7753 0.4933 -15.6874 -0.8411 0.5302 6.5577 3.0364 5.2664 70.5059 -19.6675 -21.8925 178.1059 46.9976 -135.7889 -56.1058 -24.6691 17.7718 71.6308 -9.1915 6.9232 19.7793 1.4274 0.6239 29.8742 2.1535 1.1485 5.0293 -21.4041 1.4864 0.4612 15.3173 33.9958 -8.4284 -15.3777 -13.0804 64.3479 2.9417 3.9659 45.7252 3.2808 0.4212 46.0679 3.2710 0.4504 63.3629 -5.3941 3.7981 25.9685 2.0366 -0.2247 20.9530 1.6004 -0.2414 84.4748 -10.9640 5.5197 19.2386 1.4104 0.7007 19.8674 1.4739 0.7370 -7.4598 -13.5477 -17.3830 -7.7449 -9.8955 46.4675 -0.4647 -0.0462 -16.4359 3.9789 -5.6727 -7.0320 -6.3876 0.2569 -41.9225 3.7689 -1.0237 69.8330 -14.8274 5.5117 34.2419 19.4286 -2.4702 -8.9869 
